<svg width="24" height="24" viewBox="0 0 24 24" fill="none" xmlns="http://www.w3.org/2000/svg">
<g clip-path="url(#clip0)">
<path fill-rule="evenodd" clip-rule="evenodd" d="M13.9874 6.33637L15.1263 7.50532L7.52321 15.1184C5.80163 16.84 3.01041 16.84 1.28884 15.1184C-0.43274 13.3969 -0.43274 10.6056 1.28884 8.88407L7.84292 2.32999L8.99188 3.50892L2.47776 10.063C1.4073 11.1445 1.41624 12.889 2.49774 13.9595C3.57925 15.03 5.32376 15.021 6.39423 13.9395L13.9874 6.33637ZM12.5886 5.01756L4.99549 12.6107L3.79657 11.4318L11.4097 3.82863C13.133 2.11127 15.9208 2.11127 17.6441 3.82863L18.2335 4.4181L17.0546 5.60703L16.4651 5.01756C15.9529 4.50016 15.255 4.20905 14.5269 4.20905C13.7988 4.20905 13.1009 4.50016 12.5886 5.01756ZM22.6895 8.88407C20.9662 7.16671 18.1785 7.16671 16.4551 8.88407L8.85201 16.4972L10.0409 17.6861L17.6341 10.083C18.7048 9.02267 20.4298 9.02267 21.5006 10.083C22.5675 11.1549 22.5675 12.8876 21.5006 13.9595L14.9865 20.4936L16.1754 21.6725L22.7295 15.1184C24.4359 13.3841 24.418 10.5964 22.6895 8.88407ZM11.3897 18.985L18.9829 11.3918L20.1818 12.5708L12.5786 20.1739C10.8553 21.8913 8.06759 21.8913 6.34427 20.1739L5.75481 19.5844L6.92375 18.3855L7.51322 18.985C8.58739 20.0465 10.3156 20.0465 11.3897 18.985Z" fill="white"/>
</g>
<defs>
<clipPath id="clip0">
<rect width="24" height="24" fill="white"/>
</clipPath>
</defs>
</svg>
